<?xml version="1.0" encoding="UTF-8"?>
<svg xmlns="http://www.w3.org/2000/svg" width="512.005126953125" height="514.2948608398438" viewBox="426.7995646633208 97.71582174301146 512.005126953125 514.2948608398438" preserveAspectRatio="none">
  <g>
    <defs>
      <path id="s-Circle_1-d1224" d="M426.8021240234375 354.8632507324219 C426.1740671051436 495.30069594326847 541.2198091459459 611.3800634807762 681.6572543567909 612.0081203990701 C822.9605981629378 612.6400497432865 939.4340533676552 496.1665945385679 938.8021240234375 354.863250732421 C939.4301809417314 214.42580552157523 824.3844389009291 98.34643798406759 683.9469936900841 97.7183810657737 C542.6436498839371 97.08645172155734 426.1701946792197 213.55990692627591 426.8021240234375 354.86325073242284 "></path>
    </defs>
    <g style="mix-blend-mode:normal">
      <use xmlns:xlink="http://www.w3.org/1999/xlink" xlink:href="#s-Circle_1-d1224" fill="#F2F2F2" fill-opacity="1.0"></use>
    </g>
  </g>
  <g>
    <defs>
      <path id="s-Ellipse_1-d1224" d="M500.5221252441406 520.5032653808594 C500.07492909453396 528.3858658156544 581.9910920584451 534.9012739509142 681.9869410490717 534.9365260998675 C782.5993368947545 534.9719956038589 865.5320762405973 528.4344677582023 865.0821228027344 520.5032653808591 C865.5293189523411 512.6206649460644 783.6131559884298 506.10525681080463 683.6173069978032 506.0700046618513 C583.0049111521205 506.0345351578599 500.07217180627765 512.5720630035164 500.5221252441406 520.5032653808596 Z "></path>
    </defs>
    <g style="mix-blend-mode:normal">
      <use xmlns:xlink="http://www.w3.org/1999/xlink" xlink:href="#s-Ellipse_1-d1224" fill="#011638" fill-opacity="1.0"></use>
    </g>
  </g>
  <g>
    <defs>
      <path id="s-Path_1-d1224" d="M492.7841262817383 166.0852508544922 L872.8201370239258 166.0852508544922 C885.3061370849609 166.0852508544922 895.5201377868652 176.30225086212158 895.5201377868652 188.78824996948242 L895.5201377868652 422.89324951171875 L470.0841255187988 422.89324951171875 L470.0841255187988 188.7882537841797 C470.0841255187988 176.30225372314453 480.29812240600586 166.0852508544922 492.7841262817383 166.0852508544922 Z "></path>
    </defs>
    <g style="mix-blend-mode:normal">
      <use xmlns:xlink="http://www.w3.org/1999/xlink" xlink:href="#s-Path_1-d1224" fill="#011638" fill-opacity="1.0"></use>
    </g>
  </g>
  <g>
    <defs>
      <path id="s-Path_2-d1224" d="M485.50012850761345 407.47827029228256 L880.1071231365197 407.47827029228256 L880.1071231365197 188.78625369072003 C880.1071231365197 184.8072535991673 876.7991230487817 181.49925351142926 872.8201229572289 181.49925351142926 L492.7841250896447 181.49925351142926 C488.8081250190728 181.49925351142926 485.49712491035393 184.8072535991673 485.49712491035393 188.78625369072003 L485.49712491035393 407.47924685478256 L485.50012850761345 407.47827029228256 L485.50012850761345 407.47827029228256 Z "></path>
    </defs>
    <g style="mix-blend-mode:normal">
      <use xmlns:xlink="http://www.w3.org/1999/xlink" xlink:href="#s-Path_2-d1224" fill="#3CDBD3" fill-opacity="1.0"></use>
    </g>
  </g>
  <g>
    <defs>
      <path id="s-Path_3-d1224" d="M895.5201110839844 422.89324951171875 L895.5201110839844 447.7192497253418 C895.5201110839844 460.20825004577637 884.259111404419 470.42224884033203 870.4941120147705 470.42224884033203 L495.1071243286133 470.42224884033203 C481.3421239852905 470.42224884033203 470.0811252593994 460.20824909210205 470.0811252593994 447.7192497253418 L470.0811252593994 422.89324951171875 L895.5171298980713 422.89324951171875 L895.5201110839844 422.89324951171875 Z "></path>
    </defs>
    <g style="mix-blend-mode:normal">
      <use xmlns:xlink="http://www.w3.org/1999/xlink" xlink:href="#s-Path_3-d1224" fill="#FFFFFF" fill-opacity="1.0"></use>
    </g>
  </g>
  <g>
    <defs>
      <path id="s-Path_4-d1224" d="M570.9551239013672 333.1632537841797 L558.0921173095703 333.1632537841797 L555.8911173343658 318.4462537765503 L540.248117685318 318.4462537765503 L538.0471177101135 333.1632537841797 L526.3421249389648 333.1632537841797 L539.3211250305176 252.04425048828125 L557.9781246185303 252.04425048828125 L570.957124710083 333.1632537841797 L570.9551239013672 333.1632537841797 Z M541.8661270141602 307.4362487792969 L554.1501274108887 307.4362487792969 L548.0101275444031 266.4122505187988 L541.8661270141602 307.4362487792969 Z "></path>
    </defs>
    <g style="mix-blend-mode:normal">
      <use xmlns:xlink="http://www.w3.org/1999/xlink" xlink:href="#s-Path_4-d1224" fill="#007EA7" fill-opacity="1.0"></use>
    </g>
  </g>
  <g>
    <defs>
      <path id="s-Path_5-d1224" d="M595.6391296386719 252.04425048828125 C602.0521297454834 252.04425048828125 606.8211297988892 253.74425053596497 609.9531297683716 257.14325046539307 C613.0821297168732 260.54225039482117 614.6461296081543 265.527250289917 614.6461296081543 272.0942506790161 L614.6461296081543 282.63825035095215 C614.6461296081543 289.20625019073486 613.0831296443939 294.1872501373291 609.9531297683716 297.5872507095337 C606.82412981987 300.9862506389618 602.0521297454834 302.6862506866455 595.6391296386719 302.6862506866455 L589.6141295433044 302.6862506866455 L589.6141295433044 333.1622505187988 L576.866129398346 333.1622505187988 L576.866129398346 252.04324340820312 L595.639130115509 252.04324340820312 L595.639130115509 252.04425048828125 Z M589.6141204833984 263.6322479248047 L589.6141204833984 291.0972480773926 L595.6391205787659 291.0972480773926 C597.6481206417084 291.0972480773926 599.1931204795837 290.5572480559349 600.2741208076477 289.4732481241226 C601.3551207780838 288.3922481536865 601.8951208591461 286.3832482099533 601.8951208591461 283.4482480287552 L601.8951208591461 271.28024780750275 C601.8951208591461 268.3452478647232 601.3551208376884 266.3362480401993 600.2741208076477 265.2552477121353 C599.1911208629608 264.1742477416992 597.6461207866669 263.6342476606369 595.6391205787659 263.6342476606369 L589.6141204833984 263.6342476606369 L589.6141204833984 263.6322479248047 Z "></path>
    </defs>
    <g style="mix-blend-mode:normal">
      <use xmlns:xlink="http://www.w3.org/1999/xlink" xlink:href="#s-Path_5-d1224" fill="#007EA7" fill-opacity="1.0"></use>
    </g>
  </g>
  <g>
    <defs>
      <path id="s-Path_6-d1224" d="M620.5521240234375 252.04425048828125 L633.300124168396 252.04425048828125 L633.300124168396 333.1632537841797 L620.5521240234375 333.1632537841797 L620.5521240234375 252.04425048828125 Z "></path>
    </defs>
    <g style="mix-blend-mode:normal">
      <use xmlns:xlink="http://www.w3.org/1999/xlink" xlink:href="#s-Path_6-d1224" fill="#007EA7" fill-opacity="1.0"></use>
    </g>
  </g>
  <g>
    <defs>
      <path id="s-Path_7-d1224" d="M794.3431091308594 305.37025451660156 L798.367109298706 290.0312547683716 L789.2601089477539 286.45625472068787 C789.5671089589596 283.0182547569275 789.5481089353561 279.5552546977997 789.2051089480519 276.1162545681 L798.2781089022756 272.44625449180603 L794.0941088870168 257.1512544155121 L784.4311087802052 258.609254360199 C782.9941087439656 255.50825428962708 781.2521088793874 252.51825428009033 779.2031086161733 249.6772541999817 L785.2231085970998 241.96825408935547 L773.9491084292531 230.81325435638428 L766.3031085208058 236.9142541885376 C763.4421084597707 234.89425420761108 760.4311083033681 233.18125414848328 757.3201087191701 231.778254032135 L758.6781087592244 222.09925413131714 L743.3391090109944 218.07525396347046 L739.7641089633107 227.1822543144226 C736.3261089995503 226.87525430321693 732.861109085381 226.89125430583954 729.4241088107228 227.23725431412458 L725.7571087554097 218.16425435990095 L710.4601088240743 222.34825437515974 L711.9181087687612 232.01125448197126 L711.9231087686494 232.00925448187627 C708.8251087190583 233.4442544246558 705.8321086885408 235.18825438269414 702.9911086084321 237.23725464590825 L695.2821084978059 231.21525480994023 L684.1271087648347 242.4892549777869 L690.228108596988 250.13525488623418 C688.2081086160615 252.99625494726934 686.4951085569337 256.00525477179326 685.0921084405854 259.1182546878699 L675.4131085397676 257.7602546478156 L671.3891083719209 273.0992543960456 L680.496108722873 276.6742544437293 C680.1891087116674 280.1122544074897 680.2081087352708 283.5752544666175 680.551108722575 287.0142545963172 L671.4781087683514 290.6812546516303 L675.6621087836102 305.97825458296575 L685.3221086310223 304.52025463827886 C686.7591086672619 307.6182546878699 688.5011085318401 310.6112547183875 690.5501087950543 313.45225479849614 L684.5301088141277 321.16125490912236 L695.8021240234375 332.3162536621094 L703.4481239318848 326.21525382995605 C706.3061239719391 328.23525381088257 709.3181238174438 329.9482538700104 712.4311237335205 331.35125398635864 L711.0731236934662 341.0272536277771 L726.4121234416962 345.0532536506653 L729.9871234893799 335.94625329971313 C733.4251234531403 336.2532533109188 736.8881235122681 336.23425328731537 740.3271236419678 335.89125330001116 L743.9971237182617 344.9642532542348 L759.2921237945557 340.780253238976 L757.8341238498688 331.1202533915639 C760.9351239204407 329.68325335532427 763.9251239299774 327.941253490746 766.7661240100861 325.8922532275319 L774.4751241207123 331.9122532084584 L785.6301238536835 320.64125330001116 L779.5291240215302 312.9952533915639 C781.5491240024567 310.13725335150957 783.2621240615845 307.1252535060048 784.6651241779327 304.01225358992815 L794.3431091308594 305.37025451660156 Z M752.6421203613281 299.14524841308594 C742.9291200637817 308.95824813842773 727.1041202545166 309.0392484664917 717.292121887207 299.32924841344357 C707.4791221618652 289.6162481158972 707.3971214294434 273.79224775731564 717.1081218868494 263.9792499393225 C726.8211221843958 254.16625021398067 742.6461219936609 254.0852498859167 752.4581203609705 263.79524993896484 C762.2711181640625 273.5082550048828 762.3521118164062 289.333251953125 752.6421203613281 299.14524841308594 Z "></path>
    </defs>
    <g style="mix-blend-mode:normal">
      <use xmlns:xlink="http://www.w3.org/1999/xlink" xlink:href="#s-Path_7-d1224" fill="#FFFFFF" fill-opacity="1.0"></use>
    </g>
  </g>
  <g>
    <defs>
      <path id="s-Path_8-d1224" d="M734.8731384277344 249.2842559814453 C717.0471382141113 249.2842559814453 702.5941390991211 263.73425579071045 702.5941390991211 281.5632553100586 C702.5941390991211 299.38925552368164 717.0451393127441 313.8422546386719 734.8731384277344 313.8422546386719 C752.6991386413574 313.8422546386719 767.1521377563477 299.3912544250488 767.1521377563477 281.5632553100586 C767.1521301269531 263.73724365234375 752.7021179199219 249.2842559814453 734.8731384277344 249.2842559814453 Z M752.6421203613281 299.1472473144531 C742.9291200637817 308.9602470397949 727.1041202545166 309.0412473678589 717.292121887207 299.33124731481075 C707.4791221618652 289.6192474216223 707.3971214294434 273.7942466586828 717.1081218868494 263.98124884068966 C726.8211221843958 254.16824911534786 742.6461219936609 254.0872487872839 752.4581203609705 263.79724884033203 C762.2711181640625 273.51025390625 762.3521118164062 289.3352508544922 752.6421203613281 299.1472473144531 Z "></path>
    </defs>
    <g style="mix-blend-mode:normal">
      <use xmlns:xlink="http://www.w3.org/1999/xlink" xlink:href="#s-Path_8-d1224" fill="#ECF0F1" fill-opacity="1.0"></use>
    </g>
  </g>
  <g>
    <defs>
      <path id="s-Path_9-d1224" d="M843.8621215820312 341.35325622558594 C843.9601215794683 339.5382561683655 843.8681215820834 337.70425629615784 843.5771215856075 335.8762559890747 L848.8211215436459 332.8892560005188 L842.8641217648983 320.50325632095337 L837.2141216695309 322.53125643730164 C835.978121727705 321.15125644207 834.6091216504574 319.92625641822815 833.1381214559078 318.8612563610077 L834.7361215054989 313.04025626182556 L821.7651217877865 308.49425625801086 L819.2021218240261 313.92325615882874 C817.3871217668056 313.82525616139174 815.553121894598 313.9172561587766 813.7251215875149 314.20825615525246 L810.7391215264797 308.9672559797764 L798.3531218469143 314.9262560904026 L800.3811219632626 320.5732559263706 C799.0041219890118 321.8092558681965 797.7761219441891 323.1782559454441 796.7111218869686 324.64925613999367 L790.8901217877865 323.0512560904026 L786.3441217839718 336.022255808115 L791.7731216847897 338.58725586533546 C791.6761216819286 340.3992559015751 791.7651216844097 342.23625579476357 792.0561216771603 344.0612558424473 L786.8121217191219 347.0482558310032 L792.7691214978695 359.4342555105686 L798.4191215932369 357.40625539422035 C799.6571216285229 358.78325536847115 801.0261217057705 360.01125541329384 802.49512180686 361.0762554705143 L800.9001217782497 366.8972555696964 L813.8711214959621 371.4432555735111 L816.4341214597225 366.01125541329384 C818.2461214959621 366.11125541478395 820.0831213891506 366.0192554136738 821.9111216962337 365.72825542092323 L824.8961215913296 370.97225537896156 L837.282121270895 365.015255600214 L835.2541211545467 359.368255764246 C836.6341211497784 358.1292558014393 837.8591211736202 356.76025572419167 838.9241212308407 355.2892557680607 L844.7451213300228 356.88725581765175 L849.2911213338375 343.91625609993935 L843.8621215820312 341.35325622558594 Z M827.5341186523438 349.583251953125 C822.225118637085 354.9502520561218 813.5711183547974 354.9912519454956 808.2051181793213 349.6832519546151 C802.8421182632446 344.3732520118356 802.7971181869507 335.72025165706873 808.1051181778312 330.35425148159266 C813.41411819309 324.9892517104745 822.0681184753776 324.94625148922205 827.4341186508536 330.25425148010254 C832.7991333007812 335.56524658203125 832.8431091308594 344.21624755859375 827.5341186523438 349.583251953125 Z "></path>
    </defs>
    <g style="mix-blend-mode:normal">
      <use xmlns:xlink="http://www.w3.org/1999/xlink" xlink:href="#s-Path_9-d1224" fill="#FFFFFF" fill-opacity="1.0"></use>
    </g>
  </g>
  <g>
    <defs>
      <path id="s-Path_10-d1224" d="M817.818115234375 320.50225830078125 C807.0661153793335 320.50225830078125 798.3501148223877 329.21825790405273 798.3501148223877 339.97025871276855 C798.3501148223877 350.7222595214844 807.0661144256592 359.43825912475586 817.818115234375 359.43825912475586 C828.5701150894165 359.43825912475586 837.2861156463623 350.7222595214844 837.2861156463623 339.97025871276855 C837.2861328125 329.21824645996094 828.5701293945312 320.50225830078125 817.818115234375 320.50225830078125 Z M827.5321350097656 349.583251953125 C822.2231349945068 354.94825172424316 813.5691347122192 354.9912519454956 808.2061347961426 349.6832519546151 C802.8401346206665 344.3742519393563 802.7951350212097 335.72025165706873 808.1031347960234 330.35725174099207 L808.1031347960234 330.354251740966 C813.4151345938444 324.98725163796917 822.0661350935698 324.94325196603313 827.4321352690458 330.2542517394759 C832.797119140625 335.562255859375 832.8411254882812 344.21624755859375 827.5321350097656 349.583251953125 Z "></path>
    </defs>
    <g style="mix-blend-mode:normal">
      <use xmlns:xlink="http://www.w3.org/1999/xlink" xlink:href="#s-Path_10-d1224" fill="#ECF0F1" fill-opacity="1.0"></use>
    </g>
  </g>
  <g>
    <defs>
      <path id="s-Circle_2-d1224" d="M674.9881238937378 445.6632385253906 C674.9689534373275 449.94987217809467 678.4805450124377 453.4930135569758 682.7671786651417 453.5121840133861 C687.0802425199397 453.531472669549 690.6354128093001 449.9763023801886 690.6161241531372 445.6632385253907 C690.6352946095475 441.3766048726866 687.1237030344373 437.8334634938054 682.8370693817333 437.81429303739515 C678.5240055269354 437.7950043812323 674.9688352375749 441.3501746705927 674.9881238937378 445.6632385253906 "></path>
    </defs>
    <g style="mix-blend-mode:normal">
      <use xmlns:xlink="http://www.w3.org/1999/xlink" xlink:href="#s-Circle_2-d1224" fill="#B6B6B8" fill-opacity="1.0"></use>
    </g>
  </g>
  <g>
    <defs>
      <path id="s-Path_11-d1224" d="M731.8671264648438 506.1342468261719 L767.9621276855469 517.6982469558716 L597.6381225585938 517.6982469558716 L626.7611217498779 506.1342468261719 L626.7611217498779 470.42224502563477 L731.8651180267334 470.42224502563477 L731.8651180267334 506.1342468261719 L731.8671264648438 506.1342468261719 Z "></path>
    </defs>
    <g style="mix-blend-mode:normal">
      <use xmlns:xlink="http://www.w3.org/1999/xlink" xlink:href="#s-Path_11-d1224" fill="#C2C2C4" fill-opacity="1.0"></use>
    </g>
  </g>
  <g>
    <defs>
      <path id="s-Path_12-d1224" d="M731.8671264648438 506.1342468261719 L626.7631301879883 470.42224502563477 L731.8671264648438 470.42224502563477 L731.8671264648438 506.1342468261719 Z "></path>
    </defs>
    <g style="mix-blend-mode:normal">
      <use xmlns:xlink="http://www.w3.org/1999/xlink" xlink:href="#s-Path_12-d1224" fill="#B6B6B8" fill-opacity="1.0"></use>
    </g>
  </g>
  <g>
    <defs>
      <path id="s-Path_13-d1224" d="M626.7611236572266 506.1342468261719 L731.865119934082 506.1342468261719 L767.9601211547852 517.6982469558716 L767.9601211547852 522.6792469024658 L682.7991180419922 522.6792469024658 L597.636116027832 522.6792469024658 L597.636116027832 517.6982469558716 L626.7591152191162 506.1342468261719 L626.7611236572266 506.1342468261719 Z "></path>
    </defs>
    <g style="mix-blend-mode:normal">
      <use xmlns:xlink="http://www.w3.org/1999/xlink" xlink:href="#s-Path_13-d1224" fill="#ECF0F1" fill-opacity="1.0"></use>
    </g>
  </g>
</svg>
