<?xml version="1.0" encoding="UTF-8"?>
<svg xmlns="http://www.w3.org/2000/svg" width="135.4950701445341" height="32.84962372481823" viewBox="748.45880253613 413.96003814041615 135.4950701445341 32.84962372481823" preserveAspectRatio="none">
  <g>
    <defs>
      <path id="s-Polygon_1-d1224" d="M771.0136413574219 439.7202777862549 L771.0136413574219 446.37699699401855 L758.46848487854 446.37699699401855 L758.46848487854 439.7202777862549 Z "></path>
    </defs>
    <g style="mix-blend-mode:normal">
      <use xmlns:xlink="http://www.w3.org/1999/xlink" xlink:href="#s-Polygon_1-d1224" fill="#1D76BB" fill-opacity="1.0"></use>
    </g>
  </g>
  <g>
    <defs>
      <path id="s-Rect_1-d1224" d="M751.8137304782867 427.2055997848511 L758.4704492092133 427.2055997848511 L758.4704492092133 439.7198181152344 L751.8137304782867 439.7198181152344 Z "></path>
    </defs>
    <g style="mix-blend-mode:normal">
      <use xmlns:xlink="http://www.w3.org/1999/xlink" xlink:href="#s-Rect_1-d1224" fill="#D24781" fill-opacity="1.0"></use>
    </g>
  </g>
  <g>
    <defs>
      <path id="s-Rect_2-d1224" d="M771.0156059265137 427.2055997848511 L777.6723246574402 427.2055997848511 L777.6723246574402 439.7198181152344 L771.0156059265137 439.7198181152344 Z "></path>
    </defs>
    <g style="mix-blend-mode:normal">
      <use xmlns:xlink="http://www.w3.org/1999/xlink" xlink:href="#s-Rect_2-d1224" fill="#F15B2A" fill-opacity="1.0"></use>
    </g>
  </g>
  <g>
    <defs>
      <path id="s-Polygon_2-d1224" d="M748.4588025377985 421.439246839639 L761.4127915691342 413.9600381469579 L764.7411510219683 419.72475653040755 L751.7871619906326 427.20396522308863 Z "></path>
    </defs>
    <g style="mix-blend-mode:normal">
      <use xmlns:xlink="http://www.w3.org/1999/xlink" xlink:href="#s-Polygon_2-d1224" fill="#B2D236" fill-opacity="1.0"></use>
    </g>
  </g>
  <g>
    <defs>
      <path id="s-Polygon_3-d1224" d="M764.741654862019 419.7325527676471 L768.070014434065 413.96783417772247 L781.0238864456738 421.44697530704866 L777.6955268736278 427.2116938969733 Z "></path>
    </defs>
    <g style="mix-blend-mode:normal">
      <use xmlns:xlink="http://www.w3.org/1999/xlink" xlink:href="#s-Polygon_3-d1224" fill="#29B574" fill-opacity="1.0"></use>
    </g>
  </g>
  <g>
    <defs>
      <path id="s-Path_1-d1224" d="M821.2467865943909 439.8603286743164 C820.7349755764008 439.55632877349854 820.3306448459625 439.12432861328125 820.0337944626808 438.57499504089355 C819.7369440495968 438.025661945343 819.5936369597912 437.40166187286377 819.5936369597912 436.7083284854889 C819.5936369597912 436.014995098114 819.742062151432 435.39099526405334 820.0337944626808 434.84166193008423 C820.325526714325 434.2923285961151 820.7298574447632 433.86566185951233 821.2467865943909 433.55632853507996 C821.758597612381 433.2523285448551 822.3420622348785 433.0976618528366 822.9920620918274 433.0976618528366 C823.5089912414551 433.0976618528366 823.9900937080383 433.19899520277977 824.4353694915771 433.406995177269 C824.8806447982788 433.6149951815605 825.2389125823975 433.9189952611923 825.5204086303711 434.31899523735046 L825.1928496360779 434.6069952249527 C824.9471802711487 434.24966192245483 824.6349754333496 433.97766184806824 824.2511172294617 433.7963285446167 C823.8672590255737 433.6149951815605 823.4475741386414 433.52432852983475 822.9920620918274 433.52432852983475 C822.4290699958801 433.52432852983475 821.9223771095276 433.6576618552208 821.4719834327698 433.92966187000275 C821.021589756012 434.20166182518005 820.6684401035309 434.57499516010284 820.4125345945358 435.0549952983856 C820.1566290855408 435.5349953174591 820.0286763310432 436.08966183662415 820.0286763310432 436.7083284854889 C820.0286763310432 437.3269953727722 820.1566290855408 437.88699531555176 820.4125345945358 438.37232875823975 C820.6684401035309 438.8576617240906 821.021589756012 439.23632860183716 821.4719834327698 439.5029950141907 C821.9223771095276 439.77499532699585 822.4341881275177 439.9083285331726 822.9920620918274 439.9083285331726 C823.4475741386414 439.9083285331726 823.8672590255737 439.81766176223755 824.2511172294617 439.6309952735901 C824.6349754333496 439.44966173171997 824.9471802711487 439.17766189575195 825.1928496360779 438.8203287124634 L825.5204086303711 439.0976619720459 C825.2389125823975 439.5029950141907 824.8755269050598 439.8069953918457 824.4353694915771 440.0096616744995 C823.9900937080383 440.217661857605 823.5089912414551 440.3189949989319 822.9920620918274 440.3189949989319 C822.3420622348785 440.3189949989319 821.7637157440186 440.1643285751343 821.2467865943909 439.8603286743164 Z "></path>
    </defs>
    <g style="mix-blend-mode:normal">
      <use xmlns:xlink="http://www.w3.org/1999/xlink" xlink:href="#s-Path_1-d1224" fill="#F2F2F2" fill-opacity="1.0"></use>
    </g>
  </g>
  <g>
    <defs>
      <path id="s-Path_2-d1224" d="M827.7109594345093 439.8603286743164 C827.1991486549377 439.55632877349854 826.7948184013367 439.12432861328125 826.5030856132507 438.57499504089355 C826.211353302002 438.025661945343 826.0680465698242 437.40166187286377 826.0680465698242 436.7083284854889 C826.0680465698242 436.014995098114 826.211353302002 435.39099526405334 826.5030856132507 434.84166193008423 C826.7948184013367 434.2923285961151 827.1940307617188 433.86566185951233 827.7109594345093 433.55632853507996 C828.222770690918 433.2523285448551 828.7959995269775 433.0976618528366 829.4306449890137 433.0976618528366 C830.070408821106 433.0976618528366 830.6487550735474 433.2523285448551 831.1554479598999 433.55632853507996 C831.6672592163086 433.86566185951233 832.0664720535278 434.2923285961151 832.3530855178833 434.84166193008423 C832.6448183059692 435.39099526405334 832.788125038147 436.014995098114 832.788125038147 436.7083284854889 C832.788125038147 437.40166187286377 832.6448183059692 438.025661945343 832.3530855178833 438.57499504089355 C832.0613536834717 439.12432861328125 831.6621408462524 439.55099534988403 831.1554479598999 439.8603286743164 C830.6436367034912 440.1696619987488 830.070408821106 440.3189949989319 829.4306449890137 440.3189949989319 C828.8011169433594 440.3189949989319 828.2278890609741 440.1643285751343 827.7109594345093 439.8603286743164 Z M830.930251121521 439.5029950141907 C831.3755264282227 439.23099517822266 831.7235584259033 438.8576617240906 831.9794635772705 438.37232875823975 C832.235369682312 437.88699531555176 832.3633222579956 437.33232831954956 832.3633222579956 436.7083284854889 C832.3633222579956 436.0843286514282 832.235369682312 435.5349953174591 831.9794635772705 435.0549952983856 C831.7235584259033 434.57499516010284 831.3755264282227 434.19632852077484 830.930251121521 433.92966187000275 C830.4849758148193 433.6576618552208 829.9885187149048 433.52432852983475 829.4357633590698 433.52432852983475 C828.8830070495605 433.52432852983475 828.3814325332642 433.6576618552208 827.9412746429443 433.92966187000275 C827.4959993362427 434.20166182518005 827.1479678153992 434.57499516010284 826.8920621871948 435.0549952983856 C826.6361565589905 435.5349953174591 826.5082039833069 436.08966183662415 826.5082039833069 436.7083284854889 C826.5082039833069 437.3269953727722 826.6361565589905 437.88699531555176 826.8920621871948 438.37232875823975 C827.1479678153992 438.8576617240906 827.4959993362427 439.23632860183716 827.9412746429443 439.5029950141907 C828.386549949646 439.77499532699585 828.8830070495605 439.9083285331726 829.4357633590698 439.9083285331726 C829.9885187149048 439.9083285331726 830.4849758148193 439.76966190338135 830.930251121521 439.5029950141907 Z "></path>
    </defs>
    <g style="mix-blend-mode:normal">
      <use xmlns:xlink="http://www.w3.org/1999/xlink" xlink:href="#s-Path_2-d1224" fill="#F2F2F2" fill-opacity="1.0"></use>
    </g>
  </g>
  <g>
    <defs>
      <path id="s-Path_3-d1224" d="M844.7440299987793 433.86566185951233 C845.225133895874 434.3776618242264 845.4605655670166 435.11899518966675 845.4605655670166 436.08966183662415 L845.4605655670166 440.2763285636902 L845.0255260467529 440.2763285636902 L845.0255260467529 436.1163284778595 C845.0255260467529 435.27366185188293 844.8259201049805 434.63366186618805 844.4318256378174 434.1856619119644 C844.0377311706543 433.74299520254135 843.474739074707 433.51899522542953 842.7428493499756 433.51899522542953 C841.9239521026611 433.51899522542953 841.2739524841309 433.78566187620163 840.7928504943848 434.31366181373596 C840.31174659729 434.84699511528015 840.0660781860352 435.55099511146545 840.0660781860352 436.4309952259064 L840.0660781860352 440.2763285636902 L839.6310386657715 440.2763285636902 L839.6310386657715 436.1163284778595 C839.6310386657715 435.27366185188293 839.431432723999 434.63366186618805 839.0373382568359 434.1856619119644 C838.6432437896729 433.7376618385315 838.0853691101074 433.51899522542953 837.3637161254883 433.51899522542953 C836.5396995544434 433.51899522542953 835.8845825195312 433.7803285121918 835.408597946167 434.30832850933075 C834.9274950027466 434.8363285064697 834.6920623779297 435.54032850265503 834.6920623779297 436.4309952259064 L834.6920623779297 440.2763285636902 L834.257022857666 440.2763285636902 L834.257022857666 433.15099519491196 L834.6767082214355 433.15099519491196 L834.6767082214355 434.8683285713196 C834.8865509033203 434.31899523735046 835.2294635772705 433.88699519634247 835.7003307342529 433.57232850790024 C836.1711959838867 433.25766187906265 836.734188079834 433.0976618528366 837.3944244384766 433.0976618528366 C838.0546607971191 433.0976618528366 838.6074161529541 433.2629952132702 839.0526924133301 433.5936618447304 C839.5030860900879 433.92432856559753 839.7999362945557 434.404328584671 839.9483623504639 435.0336618423462 C840.1479682922363 434.4416618347168 840.4959983825684 433.9669952392578 840.9873371124268 433.6203285455704 C841.4786758422852 433.27366185188293 842.0723781585693 433.0976618528366 842.768440246582 433.0976618528366 C843.6078109741211 433.0976618528366 844.2629280090332 433.3536618947983 844.7440299987793 433.86566185951233 Z "></path>
    </defs>
    <g style="mix-blend-mode:normal">
      <use xmlns:xlink="http://www.w3.org/1999/xlink" xlink:href="#s-Path_3-d1224" fill="#F2F2F2" fill-opacity="1.0"></use>
    </g>
  </g>
  <g>
    <defs>
      <path id="s-Path_4-d1224" d="M857.9180450439453 433.86566185951233 C858.3991470336914 434.3776618242264 858.6345825195312 435.11899518966675 858.6345825195312 436.08966183662415 L858.6345825195312 440.2763285636902 L858.1995429992676 440.2763285636902 L858.1995429992676 436.1163284778595 C858.1995429992676 435.27366185188293 857.9999351501465 434.63366186618805 857.605842590332 434.1856619119644 C857.2117462158203 433.74299520254135 856.648754119873 433.51899522542953 855.9168663024902 433.51899522542953 C855.0979690551758 433.51899522542953 854.4479675292969 433.78566187620163 853.9668655395508 434.31366181373596 C853.4857635498047 434.84699511528015 853.2400932312012 435.55099511146545 853.2400932312012 436.4309952259064 L853.2400932312012 440.2763285636902 L852.8050537109375 440.2763285636902 L852.8050537109375 436.1163284778595 C852.8050537109375 435.27366185188293 852.6054496765137 434.63366186618805 852.211353302002 434.1856619119644 C851.8172607421875 433.7376618385315 851.2593841552734 433.51899522542953 850.5377311706543 433.51899522542953 C849.713716506958 433.51899522542953 849.0585975646973 433.7803285121918 848.582612991333 434.30832850933075 C848.1015110015869 434.8363285064697 847.8660774230957 435.54032850265503 847.8660774230957 436.4309952259064 L847.8660774230957 440.2763285636902 L847.431037902832 440.2763285636902 L847.431037902832 433.15099519491196 L847.8507232666016 433.15099519491196 L847.8507232666016 434.8683285713196 C848.0605659484863 434.31899523735046 848.4034786224365 433.88699519634247 848.874345779419 433.57232850790024 C849.3452110290527 433.25766187906265 849.908203125 433.0976618528366 850.5684394836426 433.0976618528366 C851.2286758422852 433.0976618528366 851.7814331054688 433.2629952132702 852.2267074584961 433.5936618447304 C852.6771011352539 433.92432856559753 852.9739532470703 434.404328584671 853.1223754882812 435.0336618423462 C853.3219833374023 434.4416618347168 853.6700134277344 433.9669952392578 854.1613540649414 433.6203285455704 C854.6526908874512 433.27366185188293 855.2463912963867 433.0976618528366 855.942455291748 433.0976618528366 C856.7818260192871 433.0976618528366 857.4369430541992 433.3536618947983 857.9180450439453 433.86566185951233 Z "></path>
    </defs>
    <g style="mix-blend-mode:normal">
      <use xmlns:xlink="http://www.w3.org/1999/xlink" xlink:href="#s-Path_4-d1224" fill="#F2F2F2" fill-opacity="1.0"></use>
    </g>
  </g>
  <g>
    <defs>
      <path id="s-Path_5-d1224" d="M866.4243469238281 436.7776618003845 L860.431037902832 436.7776618003845 C860.441276550293 437.3803286552429 860.5743446350098 437.92432832717896 860.8404884338379 438.3989953994751 C861.1066284179688 438.8736619949341 861.4648971557617 439.246994972229 861.9255256652832 439.5136618614197 C862.386157989502 439.78032875061035 862.9030876159668 439.9136619567871 863.4763145446777 439.9136619567871 C863.9420623779297 439.9136619567871 864.3719825744629 439.82299518585205 864.7660789489746 439.64699506759644 C865.1601715087891 439.470995426178 865.4877319335938 439.2043285369873 865.7436370849609 438.8576617240906 L866.0200157165527 439.1616621017456 C865.7129287719727 439.5349950790405 865.3393058776855 439.82299518585205 864.8991470336914 440.025661945343 C864.4589920043945 440.228328704834 863.9830055236816 440.3296618461609 863.4763145446777 440.3296618461609 C862.8109588623047 440.3296618461609 862.2121391296387 440.1749954223633 861.6900939941406 439.87099504470825 C861.1680450439453 439.5669951438904 860.7585983276367 439.1349949836731 860.4566307067871 438.58566188812256 C860.1597785949707 438.03632831573486 860.0062370300293 437.4123287200928 860.0062370300293 436.7189950942993 C860.0062370300293 436.025661945343 860.1444244384766 435.40166187286377 860.4208030700684 434.85232853889465 C860.6971817016602 434.30299520492554 861.0810394287109 433.87632858753204 861.5723762512207 433.566995203495 C862.0637168884277 433.2629952132702 862.6113548278809 433.1083285212517 863.2204093933105 433.1083285212517 C863.8192291259766 433.1083285212517 864.3617477416992 433.25766187906265 864.8479690551758 433.56166183948517 C865.3341865539551 433.86566185951233 865.7180480957031 434.2869951725006 865.9995422363281 434.8256618976593 C866.2810401916504 435.364328622818 866.4192276000977 435.97766184806824 866.4192276000977 436.6656618118286 L866.4192276000977 436.7776618003845 L866.4243469238281 436.7776618003845 Z M861.8385200500488 433.87632858753204 C861.4239501953125 434.121661901474 861.0963935852051 434.46832859516144 860.8507232666016 434.91099524497986 C860.605052947998 435.353661775589 860.4668655395508 435.8496618270874 860.441276550293 436.3989951610565 L866.0148963928223 436.3989951610565 C865.9790687561035 435.8496618270874 865.8357620239258 435.353661775589 865.5849761962891 434.91099524497986 C865.3341865539551 434.46832859516144 865.0066299438477 434.121661901474 864.5971794128418 433.87632858753204 C864.1877326965332 433.63099521398544 863.7271003723145 433.5029951930046 863.2204093933105 433.5029951930046 C862.7137145996094 433.50832855701447 862.2530860900879 433.63099521398544 861.8385200500488 433.87632858753204 Z "></path>
    </defs>
    <g style="mix-blend-mode:normal">
      <use xmlns:xlink="http://www.w3.org/1999/xlink" xlink:href="#s-Path_5-d1224" fill="#F2F2F2" fill-opacity="1.0"></use>
    </g>
  </g>
  <g>
    <defs>
      <path id="s-Path_6-d1224" d="M869.2188339233398 433.55632853507996 C869.6692276000977 433.2523285448551 870.2322196960449 433.0976618528366 870.897575378418 433.0976618528366 L870.897575378418 433.5509951710701 L870.779857635498 433.5509951710701 C869.9916687011719 433.5509951710701 869.3723754882812 433.8123285770416 868.9219818115234 434.3349951505661 C868.4767074584961 434.85766196250916 868.2515106201172 435.5776617527008 868.2515106201172 436.4896619319916 L868.2515106201172 440.2763285636902 L867.8164710998535 440.2763285636902 L867.8164710998535 433.15099519491196 L868.236156463623 433.15099519491196 L868.236156463623 434.8683285713196 C868.4357643127441 434.2976619005203 868.7633209228516 433.8603285551071 869.2188339233398 433.55632853507996 Z "></path>
    </defs>
    <g style="mix-blend-mode:normal">
      <use xmlns:xlink="http://www.w3.org/1999/xlink" xlink:href="#s-Path_6-d1224" fill="#F2F2F2" fill-opacity="1.0"></use>
    </g>
  </g>
  <g>
    <defs>
      <path id="s-Path_7-d1224" d="M872.6991500854492 439.8603286743164 C872.1873359680176 439.55632877349854 871.7830085754395 439.12432861328125 871.486156463623 438.57499504089355 C871.1893081665039 438.025661945343 871.0459976196289 437.40166187286377 871.0459976196289 436.7083284854889 C871.0459976196289 436.014995098114 871.1944236755371 435.39099526405334 871.486156463623 434.84166193008423 C871.777889251709 434.2923285961151 872.1822204589844 433.86566185951233 872.6991500854492 433.55632853507996 C873.2109603881836 433.2523285448551 873.7944259643555 433.0976618528366 874.4444236755371 433.0976618528366 C874.961353302002 433.0976618528366 875.442455291748 433.19899520277977 875.8877296447754 433.406995177269 C876.3330078125 433.6149951815605 876.691276550293 433.9189952611923 876.972770690918 434.31899523735046 L876.6452102661133 434.6069952249527 C876.399543762207 434.24966192245483 876.0873374938965 433.97766184806824 875.7034797668457 433.7963285446167 C875.3196220397949 433.6149951815605 874.8999366760254 433.52432852983475 874.4444236755371 433.52432852983475 C873.8814315795898 433.52432852983475 873.3747406005859 433.6576618552208 872.9243469238281 433.92966187000275 C872.4739532470703 434.20166182518005 872.1208038330078 434.57499516010284 871.8648986816406 435.0549952983856 C871.6089897155762 435.5349953174591 871.4810371398926 436.08966183662415 871.4810371398926 436.7083284854889 C871.4810371398926 437.3269953727722 871.6089897155762 437.88699531555176 871.8648986816406 438.37232875823975 C872.1208038330078 438.8576617240906 872.4739532470703 439.23632860183716 872.9243469238281 439.5029950141907 C873.3747406005859 439.77499532699585 873.8865509033203 439.9083285331726 874.4444236755371 439.9083285331726 C874.8999366760254 439.9083285331726 875.3196220397949 439.81766176223755 875.7034797668457 439.6309952735901 C876.0873374938965 439.44966173171997 876.399543762207 439.17766189575195 876.6452102661133 438.8203287124634 L876.972770690918 439.0976619720459 C876.691276550293 439.5029950141907 876.3278884887695 439.8069953918457 875.8877296447754 440.0096616744995 C875.442455291748 440.217661857605 874.961353302002 440.3189949989319 874.4444236755371 440.3189949989319 C873.7944259643555 440.3189949989319 873.2160797119141 440.1643285751343 872.6991500854492 439.8603286743164 Z "></path>
    </defs>
    <g style="mix-blend-mode:normal">
      <use xmlns:xlink="http://www.w3.org/1999/xlink" xlink:href="#s-Path_7-d1224" fill="#F2F2F2" fill-opacity="1.0"></use>
    </g>
  </g>
  <g>
    <defs>
      <path id="s-Path_8-d1224" d="M883.9538726806641 436.7776618003845 L877.9605674743652 436.7776618003845 C877.9708023071289 437.3803286552429 878.103874206543 437.92432832717896 878.3700141906738 438.3989953994751 C878.636157989502 438.8736619949341 878.9944229125977 439.246994972229 879.4550552368164 439.5136618614197 C879.9156837463379 439.78032875061035 880.4326133728027 439.9136619567871 881.0058403015137 439.9136619567871 C881.4715881347656 439.9136619567871 881.9015121459961 439.82299518585205 882.2956047058105 439.64699506759644 C882.6897010803223 439.470995426178 883.0172576904297 439.2043285369873 883.2731628417969 438.8576617240906 L883.5495452880859 439.1616621017456 C883.2424545288086 439.5349950790405 882.8688354492188 439.82299518585205 882.4286766052246 440.025661945343 C881.9885177612305 440.228328704834 881.5125350952148 440.3296618461609 881.0058403015137 440.3296618461609 C880.3404884338379 440.3296618461609 879.7416687011719 440.1749954223633 879.2196197509766 439.87099504470825 C878.6975746154785 439.5669951438904 878.2881240844727 439.1349949836731 877.986156463623 438.58566188812256 C877.6893081665039 438.03632831573486 877.5357627868652 437.4123287200928 877.5357627868652 436.7189950942993 C877.5357627868652 436.025661945343 877.6739501953125 435.40166187286377 877.9503288269043 434.85232853889465 C878.2267074584961 434.30299520492554 878.6105651855469 433.87632858753204 879.1019058227539 433.566995203495 C879.5932426452637 433.2629952132702 880.1408805847168 433.1083285212517 880.7499351501465 433.1083285212517 C881.3487548828125 433.1083285212517 881.8912734985352 433.25766187906265 882.3774948120117 433.56166183948517 C882.8637161254883 433.86566185951233 883.2475738525391 434.2869951725006 883.5290679931641 434.8256618976593 C883.8105697631836 435.364328622818 883.9487533569336 435.97766184806824 883.9487533569336 436.6656618118286 L883.9487533569336 436.7776618003845 L883.9538726806641 436.7776618003845 Z M879.3680458068848 433.87632858753204 C878.9534797668457 434.121661901474 878.625919342041 434.46832859516144 878.3802528381348 434.91099524497986 C878.1345825195312 435.353661775589 877.9963912963867 435.8496618270874 877.9708023071289 436.3989951610565 L883.5444259643555 436.3989951610565 C883.5085983276367 435.8496618270874 883.3652877807617 435.353661775589 883.114501953125 434.91099524497986 C882.8637161254883 434.46832859516144 882.5361557006836 434.121661901474 882.126708984375 433.87632858753204 C881.7172584533691 433.63099521398544 881.2566299438477 433.5029951930046 880.7499351501465 433.5029951930046 C880.2432441711426 433.50832855701447 879.7826118469238 433.63099521398544 879.3680458068848 433.87632858753204 Z "></path>
    </defs>
    <g style="mix-blend-mode:normal">
      <use xmlns:xlink="http://www.w3.org/1999/xlink" xlink:href="#s-Path_8-d1224" fill="#F2F2F2" fill-opacity="1.0"></use>
    </g>
  </g>
  <g>
    <defs>
      <path id="s-Path_9-d1224" d="M784.24560546875 432.71943283081055 C784.24560546875 430.02005767822266 786.4340705871582 427.93939208984375 789.24560546875 427.8096618652344 L789.24560546875 429.2217197418213 C787.2991600036621 429.3314914703369 785.7955551147461 430.82837295532227 785.7955551147461 432.7144432067871 L785.7955551147461 439.8096618652344 L784.24560546875 439.8096618652344 L784.24560546875 432.71943283081055 Z "></path>
    </defs>
    <g style="mix-blend-mode:normal">
      <use xmlns:xlink="http://www.w3.org/1999/xlink" xlink:href="#s-Path_9-d1224" fill="#F2F2F2" fill-opacity="1.0"></use>
    </g>
  </g>
  <g>
    <defs>
      <path id="s-Path_10-d1224" d="M803.24560546875 433.93379974365234 C803.24560546875 434.0798454284668 803.2243881225586 434.20641708374023 803.2243881225586 434.35246086120605 L791.879222869873 434.35246086120605 C791.990608215332 436.61128425598145 794.2713088989258 438.4903926849365 796.7111282348633 438.4903926849365 C798.6258583068848 438.4903926849365 800.4928512573242 437.48755264282227 801.1770629882812 435.7934341430664 L802.8637199401855 435.7934341430664 C801.9514389038086 438.17883110046387 799.4904022216797 439.8096618652344 796.7376480102539 439.8096618652344 C793.1362609863281 439.8096618652344 790.24560546875 437.1127052307129 790.24560546875 433.8315677642822 C790.24560546875 430.5699062347412 793.1362609863281 427.8096618652344 796.7164344787598 427.8096618652344 C800.3549499511719 427.8096618652344 803.24560546875 430.63319206237793 803.24560546875 433.93379974365234 Z M801.6066818237305 433.0331916809082 C801.1982765197754 430.79870796203613 799.2358131408691 429.1240634918213 796.7323455810547 429.1240634918213 C794.2500953674316 429.1240634918213 792.266414642334 430.79870796203613 791.879222869873 433.0331916809082 L801.6066818237305 433.0331916809082 Z "></path>
    </defs>
    <g style="mix-blend-mode:normal">
      <use xmlns:xlink="http://www.w3.org/1999/xlink" xlink:href="#s-Path_10-d1224" fill="#F2F2F2" fill-opacity="1.0"></use>
    </g>
  </g>
  <g>
    <defs>
      <path id="s-Polygon_4-d1224" d="M810.6444549560547 439.8096618652344 L808.8520889282227 439.8096618652344 L803.24560546875 427.8096618652344 L804.9899635314941 427.8096618652344 L809.7109298706055 437.8566417694092 L814.5012512207031 427.8096618652344 L816.24560546875 427.8096618652344 Z "></path>
    </defs>
    <g style="mix-blend-mode:normal">
      <use xmlns:xlink="http://www.w3.org/1999/xlink" xlink:href="#s-Polygon_4-d1224" fill="#F2F2F2" fill-opacity="1.0"></use>
    </g>
  </g>
  <g>
    <defs>
      <path id="s-Polygon_5-d1224" d="M821.2809906005859 422.8096618652344 L822.24560546875 422.8096618652344 L811.2574005126953 446.8096618652344 L810.24560546875 446.8096618652344 Z "></path>
    </defs>
    <g style="mix-blend-mode:normal">
      <use xmlns:xlink="http://www.w3.org/1999/xlink" xlink:href="#s-Polygon_5-d1224" fill="#F2F2F2" fill-opacity="1.0"></use>
    </g>
  </g>
</svg>
